<?xml version="1.0" encoding="UTF-8"?>
<svg id="Capa_1" data-name="Capa 1" xmlns="http://www.w3.org/2000/svg" xmlns:xlink="http://www.w3.org/1999/xlink" viewBox="0 0 1106.63 719.55">
  <defs>
    <style>
      .cls-1 {
        fill: none;
      }

      .cls-2 {
        fill: #bd331b;
      }

      .cls-3 {
        fill: #25a4d2;
      }

      .cls-4 {
        fill: #cce1f5;
      }

      .cls-5 {
        fill: #01d3ec;
      }

      .cls-6 {
        fill: #7ae3ef;
      }

      .cls-7 {
        fill: #29577b;
      }

      .cls-8 {
        clip-path: url(#clippath-11);
      }

      .cls-9 {
        clip-path: url(#clippath-16);
      }

      .cls-10 {
        clip-path: url(#clippath-10);
      }

      .cls-11 {
        clip-path: url(#clippath-15);
      }

      .cls-12 {
        clip-path: url(#clippath-13);
      }

      .cls-13 {
        clip-path: url(#clippath-14);
      }

      .cls-14 {
        clip-path: url(#clippath-12);
      }

      .cls-15 {
        clip-path: url(#clippath-1);
      }

      .cls-16 {
        clip-path: url(#clippath-3);
      }

      .cls-17 {
        clip-path: url(#clippath-4);
      }

      .cls-18 {
        clip-path: url(#clippath-2);
      }

      .cls-19 {
        clip-path: url(#clippath-7);
      }

      .cls-20 {
        clip-path: url(#clippath-6);
      }

      .cls-21 {
        clip-path: url(#clippath-9);
      }

      .cls-22 {
        clip-path: url(#clippath-8);
      }

      .cls-23 {
        clip-path: url(#clippath-5);
      }

      .cls-24 {
        fill: #fff;
      }

      .cls-25 {
        fill: url(#Degradado_sin_nombre);
      }

      .cls-26 {
        fill: url(#Degradado_sin_nombre_5);
      }

      .cls-27 {
        fill: url(#Degradado_sin_nombre_4);
      }

      .cls-28 {
        fill: url(#Degradado_sin_nombre_3);
      }

      .cls-29 {
        fill: url(#Degradado_sin_nombre_2);
      }

      .cls-30 {
        clip-path: url(#clippath);
      }
    </style>
    <clipPath id="clippath">
      <rect class="cls-1" x="88.9" y="205.09" width="922.56" height="417.73"/>
    </clipPath>
    <clipPath id="clippath-1">
      <rect class="cls-1" x="88.9" y="497.24" width="921.45" height="125.58"/>
    </clipPath>
    <clipPath id="clippath-2">
      <rect class="cls-1" x="499.46" y="130.95" width="35.78" height="63.45"/>
    </clipPath>
    <clipPath id="clippath-3">
      <polygon class="cls-1" points="523.41 131.1 499.54 166.59 499.54 194.13 502.9 183.42 535.03 165.37 523.41 131.1"/>
    </clipPath>
    <clipPath id="clippath-4">
      <polygon class="cls-1" points="523.41 131.1 499.54 166.59 499.54 194.13 502.9 183.42 535.03 165.37 523.41 131.1"/>
    </clipPath>
    <linearGradient id="Degradado_sin_nombre" data-name="Degradado sin nombre" x1="-497.13" y1="-72.59" x2="-496.76" y2="-72.59" gradientTransform="translate(48333.36 -6821.76) scale(96.22 -96.22)" gradientUnits="userSpaceOnUse">
      <stop offset="0" stop-color="#f44009"/>
      <stop offset=".12" stop-color="#f44009"/>
      <stop offset=".16" stop-color="#f34009"/>
      <stop offset=".19" stop-color="#f2400a"/>
      <stop offset=".22" stop-color="#f23f0a"/>
      <stop offset=".25" stop-color="#f13f0a"/>
      <stop offset=".28" stop-color="#f03f0b"/>
      <stop offset=".31" stop-color="#ef3f0b"/>
      <stop offset=".33" stop-color="#ee3e0b"/>
      <stop offset=".34" stop-color="#ee3e0c"/>
      <stop offset=".36" stop-color="#ed3e0c"/>
      <stop offset=".38" stop-color="#ed3e0c"/>
      <stop offset=".39" stop-color="#ec3e0c"/>
      <stop offset=".41" stop-color="#ec3e0d"/>
      <stop offset=".42" stop-color="#eb3d0d"/>
      <stop offset=".44" stop-color="#ea3d0d"/>
      <stop offset=".45" stop-color="#e93d0e"/>
      <stop offset=".47" stop-color="#e93d0e"/>
      <stop offset=".48" stop-color="#e83c0e"/>
      <stop offset=".5" stop-color="#e73c0f"/>
      <stop offset=".52" stop-color="#e63c0f"/>
      <stop offset=".53" stop-color="#e63c0f"/>
      <stop offset=".55" stop-color="#e53c10"/>
      <stop offset=".56" stop-color="#e43b10"/>
      <stop offset=".58" stop-color="#e33b10"/>
      <stop offset=".59" stop-color="#e23b11"/>
      <stop offset=".61" stop-color="#e13a11"/>
      <stop offset=".62" stop-color="#e03a12"/>
      <stop offset=".63" stop-color="#df3a12"/>
      <stop offset=".64" stop-color="#df3a12"/>
      <stop offset=".65" stop-color="#de3a12"/>
      <stop offset=".66" stop-color="#de3913"/>
      <stop offset=".66" stop-color="#dd3913"/>
      <stop offset=".67" stop-color="#dd3913"/>
      <stop offset=".68" stop-color="#dc3913"/>
      <stop offset=".69" stop-color="#dc3913"/>
      <stop offset=".7" stop-color="#db3914"/>
      <stop offset=".7" stop-color="#db3914"/>
      <stop offset=".71" stop-color="#da3814"/>
      <stop offset=".72" stop-color="#da3814"/>
      <stop offset=".73" stop-color="#d93815"/>
      <stop offset=".73" stop-color="#d83815"/>
      <stop offset=".74" stop-color="#d83815"/>
      <stop offset=".75" stop-color="#d73815"/>
      <stop offset=".76" stop-color="#d73716"/>
      <stop offset=".77" stop-color="#d63716"/>
      <stop offset=".77" stop-color="#d53716"/>
      <stop offset=".78" stop-color="#d53716"/>
      <stop offset=".79" stop-color="#d43717"/>
      <stop offset=".8" stop-color="#d43617"/>
      <stop offset=".8" stop-color="#d33617"/>
      <stop offset=".81" stop-color="#d23618"/>
      <stop offset=".82" stop-color="#d23618"/>
      <stop offset=".83" stop-color="#d13618"/>
      <stop offset=".84" stop-color="#d03618"/>
      <stop offset=".84" stop-color="#d03519"/>
      <stop offset=".85" stop-color="#cf3519"/>
      <stop offset=".86" stop-color="#ce3519"/>
      <stop offset=".87" stop-color="#ce351a"/>
      <stop offset=".88" stop-color="#cd351a"/>
      <stop offset=".88" stop-color="#cc341a"/>
      <stop offset=".89" stop-color="#cc341a"/>
      <stop offset=".9" stop-color="#cb341b"/>
      <stop offset=".91" stop-color="#ca341b"/>
      <stop offset=".91" stop-color="#ca341b"/>
      <stop offset=".92" stop-color="#c9331c"/>
      <stop offset=".93" stop-color="#c8331c"/>
      <stop offset=".94" stop-color="#c7331c"/>
      <stop offset=".95" stop-color="#c7331d"/>
      <stop offset=".95" stop-color="#c6321d"/>
      <stop offset=".96" stop-color="#c5321d"/>
      <stop offset=".97" stop-color="#c4321e"/>
      <stop offset=".98" stop-color="#c4321e"/>
      <stop offset=".98" stop-color="#c3321e"/>
      <stop offset=".99" stop-color="#c2311e"/>
      <stop offset="1" stop-color="#c1311f"/>
    </linearGradient>
    <clipPath id="clippath-5">
      <rect class="cls-1" x="572.49" y="130.95" width="35.78" height="63.45"/>
    </clipPath>
    <clipPath id="clippath-6">
      <polygon class="cls-1" points="584.17 131.1 608.04 166.59 608.04 194.13 604.67 183.42 572.55 165.37 584.17 131.1"/>
    </clipPath>
    <clipPath id="clippath-7">
      <polygon class="cls-1" points="584.17 131.1 608.04 166.59 608.04 194.13 604.67 183.42 572.55 165.37 584.17 131.1"/>
    </clipPath>
    <linearGradient id="Degradado_sin_nombre_2" data-name="Degradado sin nombre 2" x1="-498.43" y1="-72.59" x2="-498.06" y2="-72.59" gradientTransform="translate(48531.28 -6821.76) scale(96.22 -96.22)" gradientUnits="userSpaceOnUse">
      <stop offset="0" stop-color="#c1311f"/>
      <stop offset="0" stop-color="#c1311f"/>
      <stop offset=".02" stop-color="#c2311e"/>
      <stop offset=".02" stop-color="#c3321e"/>
      <stop offset=".03" stop-color="#c4321e"/>
      <stop offset=".04" stop-color="#c4321e"/>
      <stop offset=".05" stop-color="#c5321d"/>
      <stop offset=".05" stop-color="#c6321d"/>
      <stop offset=".06" stop-color="#c7331d"/>
      <stop offset=".07" stop-color="#c7331c"/>
      <stop offset=".08" stop-color="#c8331c"/>
      <stop offset=".09" stop-color="#c9331c"/>
      <stop offset=".09" stop-color="#ca341b"/>
      <stop offset=".1" stop-color="#ca341b"/>
      <stop offset=".11" stop-color="#cb341b"/>
      <stop offset=".12" stop-color="#cc341a"/>
      <stop offset=".12" stop-color="#cc341a"/>
      <stop offset=".13" stop-color="#cd351a"/>
      <stop offset=".14" stop-color="#ce351a"/>
      <stop offset=".15" stop-color="#ce3519"/>
      <stop offset=".16" stop-color="#cf3519"/>
      <stop offset=".16" stop-color="#d03519"/>
      <stop offset=".17" stop-color="#d03618"/>
      <stop offset=".18" stop-color="#d13618"/>
      <stop offset=".19" stop-color="#d23618"/>
      <stop offset=".2" stop-color="#d23618"/>
      <stop offset=".2" stop-color="#d33617"/>
      <stop offset=".21" stop-color="#d43617"/>
      <stop offset=".22" stop-color="#d43717"/>
      <stop offset=".23" stop-color="#d53716"/>
      <stop offset=".23" stop-color="#d53716"/>
      <stop offset=".24" stop-color="#d63716"/>
      <stop offset=".25" stop-color="#d73716"/>
      <stop offset=".26" stop-color="#d73815"/>
      <stop offset=".27" stop-color="#d83815"/>
      <stop offset=".27" stop-color="#d83815"/>
      <stop offset=".28" stop-color="#d93815"/>
      <stop offset=".29" stop-color="#da3814"/>
      <stop offset=".3" stop-color="#da3814"/>
      <stop offset=".3" stop-color="#db3914"/>
      <stop offset=".31" stop-color="#db3914"/>
      <stop offset=".32" stop-color="#dc3913"/>
      <stop offset=".33" stop-color="#dc3913"/>
      <stop offset=".34" stop-color="#dd3913"/>
      <stop offset=".34" stop-color="#dd3913"/>
      <stop offset=".35" stop-color="#de3913"/>
      <stop offset=".36" stop-color="#de3a12"/>
      <stop offset=".37" stop-color="#df3a12"/>
      <stop offset=".38" stop-color="#df3a12"/>
      <stop offset=".39" stop-color="#e03a12"/>
      <stop offset=".41" stop-color="#e13a11"/>
      <stop offset=".42" stop-color="#e23b11"/>
      <stop offset=".44" stop-color="#e33b10"/>
      <stop offset=".45" stop-color="#e43b10"/>
      <stop offset=".47" stop-color="#e53c10"/>
      <stop offset=".48" stop-color="#e63c0f"/>
      <stop offset=".5" stop-color="#e63c0f"/>
      <stop offset=".52" stop-color="#e73c0f"/>
      <stop offset=".53" stop-color="#e83c0e"/>
      <stop offset=".55" stop-color="#e93d0e"/>
      <stop offset=".56" stop-color="#e93d0e"/>
      <stop offset=".58" stop-color="#ea3d0d"/>
      <stop offset=".59" stop-color="#eb3d0d"/>
      <stop offset=".61" stop-color="#ec3e0d"/>
      <stop offset=".62" stop-color="#ec3e0c"/>
      <stop offset=".64" stop-color="#ed3e0c"/>
      <stop offset=".66" stop-color="#ed3e0c"/>
      <stop offset=".67" stop-color="#ee3e0c"/>
      <stop offset=".69" stop-color="#ee3e0b"/>
      <stop offset=".72" stop-color="#ef3f0b"/>
      <stop offset=".75" stop-color="#f03f0b"/>
      <stop offset=".78" stop-color="#f13f0a"/>
      <stop offset=".81" stop-color="#f23f0a"/>
      <stop offset=".84" stop-color="#f2400a"/>
      <stop offset=".88" stop-color="#f34009"/>
      <stop offset="1" stop-color="#f44009"/>
    </linearGradient>
    <clipPath id="clippath-8">
      <rect class="cls-1" x="517.9" y="30.99" width="71.93" height="155.67"/>
    </clipPath>
    <clipPath id="clippath-9">
      <path class="cls-1" d="M570.97,186.48h-34.35c-29.5-64.38-18.26-106.81-4.05-130.77,9.9-16.71,21.21-24.45,21.21-24.45,0,0,11.34,7.77,21.24,24.45,14.19,23.99,25.46,66.39-4.05,130.77M553.79,75.32c-11.93,0-21.59,9.67-21.59,21.59s9.67,21.6,21.59,21.6,21.59-9.67,21.59-21.6-9.67-21.59-21.59-21.59Z"/>
    </clipPath>
    <clipPath id="clippath-10">
      <path class="cls-1" d="M570.97,186.48h-34.35c-29.5-64.38-18.26-106.81-4.05-130.77,9.9-16.71,21.21-24.45,21.21-24.45,0,0,11.34,7.77,21.24,24.45,14.19,23.99,25.46,66.39-4.05,130.77M553.79,75.32c-11.93,0-21.59,9.67-21.59,21.59s9.67,21.6,21.59,21.6,21.59-9.67,21.59-21.6-9.67-21.59-21.59-21.59Z"/>
    </clipPath>
    <linearGradient id="Degradado_sin_nombre_3" data-name="Degradado sin nombre 3" x1="-495.46" y1="-72.57" x2="-494.98" y2="-72.57" gradientTransform="translate(96401.15 -13937.57) scale(193.54 -193.54)" gradientUnits="userSpaceOnUse">
      <stop offset="0" stop-color="#f9f8fd"/>
      <stop offset=".12" stop-color="#f9f8fd"/>
      <stop offset=".19" stop-color="#f9f8fd"/>
      <stop offset=".22" stop-color="#f8f7fc"/>
      <stop offset=".25" stop-color="#f8f6fc"/>
      <stop offset=".27" stop-color="#f7f6fb"/>
      <stop offset=".28" stop-color="#f6f5fa"/>
      <stop offset=".3" stop-color="#f6f4fa"/>
      <stop offset=".31" stop-color="#f5f4f9"/>
      <stop offset=".33" stop-color="#f5f3f9"/>
      <stop offset=".34" stop-color="#f4f2f8"/>
      <stop offset=".36" stop-color="#f3f1f7"/>
      <stop offset=".38" stop-color="#f3f0f7"/>
      <stop offset=".39" stop-color="#f2eff6"/>
      <stop offset=".4" stop-color="#f1eff5"/>
      <stop offset=".41" stop-color="#f1eef5"/>
      <stop offset=".41" stop-color="#f0eef4"/>
      <stop offset=".42" stop-color="#f0edf4"/>
      <stop offset=".43" stop-color="#efecf4"/>
      <stop offset=".44" stop-color="#efecf3"/>
      <stop offset=".45" stop-color="#eeebf3"/>
      <stop offset=".45" stop-color="#eeebf2"/>
      <stop offset=".46" stop-color="#edeaf2"/>
      <stop offset=".47" stop-color="#ede9f1"/>
      <stop offset=".48" stop-color="#ece9f0"/>
      <stop offset=".48" stop-color="#ece8f0"/>
      <stop offset=".49" stop-color="#ebe7ef"/>
      <stop offset=".5" stop-color="#ebe7ef"/>
      <stop offset=".51" stop-color="#eae6ee"/>
      <stop offset=".52" stop-color="#e9e5ee"/>
      <stop offset=".52" stop-color="#e9e5ed"/>
      <stop offset=".53" stop-color="#e8e4ec"/>
      <stop offset=".54" stop-color="#e8e3ec"/>
      <stop offset=".55" stop-color="#e7e2eb"/>
      <stop offset=".55" stop-color="#e6e2eb"/>
      <stop offset=".56" stop-color="#e6e1ea"/>
      <stop offset=".57" stop-color="#e5e0e9"/>
      <stop offset=".58" stop-color="#e4dfe9"/>
      <stop offset=".59" stop-color="#e3dee8"/>
      <stop offset=".59" stop-color="#e3dde7"/>
      <stop offset=".6" stop-color="#e2dde6"/>
      <stop offset=".61" stop-color="#e1dce6"/>
      <stop offset=".62" stop-color="#e1dbe5"/>
      <stop offset=".62" stop-color="#e0dae4"/>
      <stop offset=".63" stop-color="#dfd9e3"/>
      <stop offset=".64" stop-color="#ded8e3"/>
      <stop offset=".65" stop-color="#ddd7e2"/>
      <stop offset=".66" stop-color="#ddd6e1"/>
      <stop offset=".66" stop-color="#dcd5e0"/>
      <stop offset=".67" stop-color="#dbd4e0"/>
      <stop offset=".68" stop-color="#dad3df"/>
      <stop offset=".68" stop-color="#dad3de"/>
      <stop offset=".68" stop-color="#d9d2de"/>
      <stop offset=".69" stop-color="#d9d2dd"/>
      <stop offset=".69" stop-color="#d8d1dd"/>
      <stop offset=".7" stop-color="#d8d1dd"/>
      <stop offset=".7" stop-color="#d8d0dc"/>
      <stop offset=".7" stop-color="#d7d0dc"/>
      <stop offset=".71" stop-color="#d7cfdb"/>
      <stop offset=".71" stop-color="#d6cfdb"/>
      <stop offset=".71" stop-color="#d6ceda"/>
      <stop offset=".72" stop-color="#d5ceda"/>
      <stop offset=".72" stop-color="#d5cdda"/>
      <stop offset=".73" stop-color="#d4ccd9"/>
      <stop offset=".73" stop-color="#d4ccd9"/>
      <stop offset=".73" stop-color="#d4cbd8"/>
      <stop offset=".74" stop-color="#d3cbd8"/>
      <stop offset=".74" stop-color="#d3cad7"/>
      <stop offset=".75" stop-color="#d2cad7"/>
      <stop offset=".75" stop-color="#d2c9d6"/>
      <stop offset=".75" stop-color="#d1c9d6"/>
      <stop offset=".76" stop-color="#d1c8d5"/>
      <stop offset=".76" stop-color="#d0c7d5"/>
      <stop offset=".77" stop-color="#d0c7d4"/>
      <stop offset=".77" stop-color="#cfc6d4"/>
      <stop offset=".77" stop-color="#cfc6d4"/>
      <stop offset=".78" stop-color="#cec5d3"/>
      <stop offset=".78" stop-color="#cec4d3"/>
      <stop offset=".79" stop-color="#cdc4d2"/>
      <stop offset=".79" stop-color="#cdc3d2"/>
      <stop offset=".79" stop-color="#ccc3d1"/>
      <stop offset=".8" stop-color="#ccc2d1"/>
      <stop offset=".8" stop-color="#cbc1d0"/>
      <stop offset=".8" stop-color="#cbc1d0"/>
      <stop offset=".81" stop-color="#cac0cf"/>
      <stop offset=".81" stop-color="#cac0cf"/>
      <stop offset=".82" stop-color="#c9bfce"/>
      <stop offset=".82" stop-color="#c9bece"/>
      <stop offset=".82" stop-color="#c8becd"/>
      <stop offset=".83" stop-color="#c8bdcc"/>
      <stop offset=".83" stop-color="#c7bccc"/>
      <stop offset=".84" stop-color="#c7bccb"/>
      <stop offset=".84" stop-color="#c6bbcb"/>
      <stop offset=".84" stop-color="#c5bbca"/>
      <stop offset=".85" stop-color="#c5baca"/>
      <stop offset=".85" stop-color="#c4b9c9"/>
      <stop offset=".86" stop-color="#c4b9c9"/>
      <stop offset=".86" stop-color="#c3b8c8"/>
      <stop offset=".86" stop-color="#c3b7c8"/>
      <stop offset=".87" stop-color="#c2b7c7"/>
      <stop offset=".87" stop-color="#c2b6c7"/>
      <stop offset=".88" stop-color="#c1b5c6"/>
      <stop offset=".88" stop-color="#c1b5c6"/>
      <stop offset=".88" stop-color="#c0b4c5"/>
      <stop offset=".89" stop-color="#c0b4c5"/>
      <stop offset=".91" stop-color="#c0b4c5"/>
      <stop offset=".94" stop-color="#c0b4c5"/>
      <stop offset="1" stop-color="#c0b4c5"/>
    </linearGradient>
    <clipPath id="clippath-11">
      <rect class="cls-1" x="534.13" y="186.28" width="39.47" height="19.18"/>
    </clipPath>
    <clipPath id="clippath-12">
      <polygon class="cls-1" points="573.36 205.17 534.22 205.17 536.62 186.48 570.96 186.48 573.36 205.17"/>
    </clipPath>
    <clipPath id="clippath-13">
      <polygon class="cls-1" points="573.36 205.17 534.22 205.17 536.62 186.48 570.96 186.48 573.36 205.17"/>
    </clipPath>
    <linearGradient id="Degradado_sin_nombre_4" data-name="Degradado sin nombre 4" x1="-497.34" y1="-71.96" x2="-496.97" y2="-71.96" gradientTransform="translate(53299.35 -7438.94) scale(106.1 -106.1)" gradientUnits="userSpaceOnUse">
      <stop offset="0" stop-color="#2278ac"/>
      <stop offset=".12" stop-color="#2278ac"/>
      <stop offset=".16" stop-color="#2277ab"/>
      <stop offset=".19" stop-color="#27a"/>
      <stop offset=".22" stop-color="#27a"/>
      <stop offset=".25" stop-color="#2276a9"/>
      <stop offset=".28" stop-color="#2376a8"/>
      <stop offset=".31" stop-color="#2375a7"/>
      <stop offset=".33" stop-color="#2374a7"/>
      <stop offset=".34" stop-color="#2374a6"/>
      <stop offset=".36" stop-color="#2374a6"/>
      <stop offset=".38" stop-color="#2373a5"/>
      <stop offset=".39" stop-color="#2373a4"/>
      <stop offset=".41" stop-color="#2373a4"/>
      <stop offset=".42" stop-color="#2372a3"/>
      <stop offset=".44" stop-color="#2372a3"/>
      <stop offset=".45" stop-color="#2371a2"/>
      <stop offset=".47" stop-color="#2471a1"/>
      <stop offset=".48" stop-color="#2470a0"/>
      <stop offset=".5" stop-color="#2470a0"/>
      <stop offset=".52" stop-color="#246f9f"/>
      <stop offset=".53" stop-color="#246f9e"/>
      <stop offset=".55" stop-color="#246e9d"/>
      <stop offset=".56" stop-color="#246e9d"/>
      <stop offset=".58" stop-color="#246d9c"/>
      <stop offset=".59" stop-color="#246c9b"/>
      <stop offset=".61" stop-color="#256c9a"/>
      <stop offset=".62" stop-color="#256b99"/>
      <stop offset=".64" stop-color="#256a98"/>
      <stop offset=".66" stop-color="#256a97"/>
      <stop offset=".66" stop-color="#256996"/>
      <stop offset=".67" stop-color="#256996"/>
      <stop offset=".68" stop-color="#256995"/>
      <stop offset=".69" stop-color="#256895"/>
      <stop offset=".7" stop-color="#256894"/>
      <stop offset=".7" stop-color="#256894"/>
      <stop offset=".71" stop-color="#266793"/>
      <stop offset=".72" stop-color="#266793"/>
      <stop offset=".73" stop-color="#266792"/>
      <stop offset=".73" stop-color="#266691"/>
      <stop offset=".74" stop-color="#266691"/>
      <stop offset=".75" stop-color="#266590"/>
      <stop offset=".76" stop-color="#266590"/>
      <stop offset=".77" stop-color="#26658f"/>
      <stop offset=".77" stop-color="#26648f"/>
      <stop offset=".78" stop-color="#26648e"/>
      <stop offset=".79" stop-color="#26638d"/>
      <stop offset=".8" stop-color="#26638d"/>
      <stop offset=".8" stop-color="#27638c"/>
      <stop offset=".81" stop-color="#27628c"/>
      <stop offset=".82" stop-color="#27628b"/>
      <stop offset=".83" stop-color="#27618a"/>
      <stop offset=".84" stop-color="#27618a"/>
      <stop offset=".84" stop-color="#276189"/>
      <stop offset=".85" stop-color="#276089"/>
      <stop offset=".86" stop-color="#276088"/>
      <stop offset=".87" stop-color="#275f87"/>
      <stop offset=".88" stop-color="#275f87"/>
      <stop offset=".88" stop-color="#275e86"/>
      <stop offset=".89" stop-color="#285e85"/>
      <stop offset=".9" stop-color="#285d85"/>
      <stop offset=".91" stop-color="#285d84"/>
      <stop offset=".91" stop-color="#285d83"/>
      <stop offset=".92" stop-color="#285c83"/>
      <stop offset=".93" stop-color="#285c82"/>
      <stop offset=".94" stop-color="#285b81"/>
      <stop offset=".95" stop-color="#285b80"/>
      <stop offset=".95" stop-color="#285a80"/>
      <stop offset=".96" stop-color="#285a7f"/>
      <stop offset=".97" stop-color="#29597e"/>
      <stop offset=".98" stop-color="#29597e"/>
      <stop offset=".98" stop-color="#29587d"/>
      <stop offset=".99" stop-color="#29587c"/>
      <stop offset="1" stop-color="#29577b"/>
    </linearGradient>
    <clipPath id="clippath-14">
      <rect class="cls-1" x="532.29" y="30.99" width="42.79" height="33.57"/>
    </clipPath>
    <clipPath id="clippath-15">
      <path class="cls-1" d="M575.02,55.71c-5.46,5.37-12.97,8.68-21.24,8.68s-15.75-3.31-21.21-8.68c9.9-16.71,21.21-24.45,21.21-24.45,0,0,11.34,7.77,21.24,24.45Z"/>
    </clipPath>
    <clipPath id="clippath-16">
      <path class="cls-1" d="M575.02,55.71c-5.46,5.37-12.97,8.68-21.24,8.68s-15.75-3.31-21.21-8.68c9.9-16.71,21.21-24.45,21.21-24.45,0,0,11.34,7.77,21.24,24.45Z"/>
    </clipPath>
    <linearGradient id="Degradado_sin_nombre_5" data-name="Degradado sin nombre 5" x1="-497" y1="-74.14" x2="-496.64" y2="-74.14" gradientTransform="translate(57724.39 -8483.14) scale(115.07 -115.07)" gradientUnits="userSpaceOnUse">
      <stop offset="0" stop-color="#f44009"/>
      <stop offset=".12" stop-color="#f44009"/>
      <stop offset=".16" stop-color="#f34009"/>
      <stop offset=".19" stop-color="#f2400a"/>
      <stop offset=".22" stop-color="#f23f0a"/>
      <stop offset=".25" stop-color="#f13f0a"/>
      <stop offset=".28" stop-color="#f03f0b"/>
      <stop offset=".31" stop-color="#ef3f0b"/>
      <stop offset=".33" stop-color="#ee3e0b"/>
      <stop offset=".34" stop-color="#ee3e0c"/>
      <stop offset=".36" stop-color="#ed3e0c"/>
      <stop offset=".38" stop-color="#ed3e0c"/>
      <stop offset=".39" stop-color="#ec3e0c"/>
      <stop offset=".41" stop-color="#ec3e0d"/>
      <stop offset=".42" stop-color="#eb3d0d"/>
      <stop offset=".44" stop-color="#ea3d0d"/>
      <stop offset=".45" stop-color="#e93d0e"/>
      <stop offset=".47" stop-color="#e93d0e"/>
      <stop offset=".48" stop-color="#e83c0e"/>
      <stop offset=".5" stop-color="#e73c0f"/>
      <stop offset=".52" stop-color="#e63c0f"/>
      <stop offset=".53" stop-color="#e63c0f"/>
      <stop offset=".55" stop-color="#e53c10"/>
      <stop offset=".56" stop-color="#e43b10"/>
      <stop offset=".58" stop-color="#e33b10"/>
      <stop offset=".59" stop-color="#e23b11"/>
      <stop offset=".61" stop-color="#e13a11"/>
      <stop offset=".62" stop-color="#e03a12"/>
      <stop offset=".63" stop-color="#df3a12"/>
      <stop offset=".64" stop-color="#df3a12"/>
      <stop offset=".65" stop-color="#de3a12"/>
      <stop offset=".66" stop-color="#de3913"/>
      <stop offset=".66" stop-color="#dd3913"/>
      <stop offset=".67" stop-color="#dd3913"/>
      <stop offset=".68" stop-color="#dc3913"/>
      <stop offset=".69" stop-color="#dc3913"/>
      <stop offset=".7" stop-color="#db3914"/>
      <stop offset=".7" stop-color="#db3914"/>
      <stop offset=".71" stop-color="#da3814"/>
      <stop offset=".72" stop-color="#da3814"/>
      <stop offset=".73" stop-color="#d93815"/>
      <stop offset=".73" stop-color="#d83815"/>
      <stop offset=".74" stop-color="#d83815"/>
      <stop offset=".75" stop-color="#d73815"/>
      <stop offset=".76" stop-color="#d73716"/>
      <stop offset=".77" stop-color="#d63716"/>
      <stop offset=".77" stop-color="#d53716"/>
      <stop offset=".78" stop-color="#d53716"/>
      <stop offset=".79" stop-color="#d43717"/>
      <stop offset=".8" stop-color="#d43617"/>
      <stop offset=".8" stop-color="#d33617"/>
      <stop offset=".81" stop-color="#d23618"/>
      <stop offset=".82" stop-color="#d23618"/>
      <stop offset=".83" stop-color="#d13618"/>
      <stop offset=".84" stop-color="#d03618"/>
      <stop offset=".84" stop-color="#d03519"/>
      <stop offset=".85" stop-color="#cf3519"/>
      <stop offset=".86" stop-color="#ce3519"/>
      <stop offset=".87" stop-color="#ce351a"/>
      <stop offset=".88" stop-color="#cd351a"/>
      <stop offset=".88" stop-color="#cc341a"/>
      <stop offset=".89" stop-color="#cc341a"/>
      <stop offset=".9" stop-color="#cb341b"/>
      <stop offset=".91" stop-color="#ca341b"/>
      <stop offset=".91" stop-color="#ca341b"/>
      <stop offset=".92" stop-color="#c9331c"/>
      <stop offset=".93" stop-color="#c8331c"/>
      <stop offset=".94" stop-color="#c7331c"/>
      <stop offset=".95" stop-color="#c7331d"/>
      <stop offset=".95" stop-color="#c6321d"/>
      <stop offset=".96" stop-color="#c5321d"/>
      <stop offset=".97" stop-color="#c4321e"/>
      <stop offset=".98" stop-color="#c4321e"/>
      <stop offset=".98" stop-color="#c3321e"/>
      <stop offset=".99" stop-color="#c2311e"/>
      <stop offset="1" stop-color="#c1311f"/>
    </linearGradient>
  </defs>
  <path class="cls-3" d="M0,622.82h1106.63V0H0v622.82Z"/>
  <g class="cls-30">
    <path class="cls-24" d="M709.27,568.63c-.07-.07-.07-.21-.14-.28,1.04-.83,1.94-1.73,2.91-2.63.14.14.21.34.35.48-1.04.76-2.08,1.59-3.11,2.42ZM949.68,560.89c-7.06,0-13.76,1.25-20.06,3.39-8.51-35.14-40.04-61.28-77.74-61.28-14.87,0-28.7,4.15-40.67,11.21-7.26-22.96-28.7-39.56-54.08-39.56-22.2,0-41.36,12.8-50.7,31.33-4.63-3.25-10.03-5.6-15.84-6.64-2.83-32.65-30.22-58.24-63.56-58.24-6.92,0-13.56,1.11-19.85,3.18,0-.35.07-.69.07-1.04,0-17.5-11.48-32.3-27.32-37.35l-6.71-200.71h-39.08l-7.4,222.29c-17.22,4.15-30.09,19.64-30.09,38.18,0,.42,0,.83.07,1.25-4.22-.83-8.58-1.25-13-1.25-22.27,0-42.12,10.03-55.47,25.8-9.68-20.13-30.23-33.96-54.02-33.96-33.13,0-59.97,26.84-59.97,59.97,0,2.08.07,4.08.28,6.09-9.41-3.87-19.64-6.09-30.43-6.09-35.07,0-64.74,22.76-75.32,54.22-11.83-7.05-25.59-11.14-40.39-11.14-43.85,0-79.47,35.62-79.47,79.54v.9c.48,43.5,35.9,78.57,79.47,78.57,35.07,0,64.74-22.69,75.32-54.16,11.9,6.99,25.66,11.07,40.39,11.07,18.05,0,34.72-6.09,48.07-16.25,14.52,18.33,37,30.16,62.25,30.16,19.09,0,36.59-6.71,50.35-17.91,11.48,6.5,24.76,10.24,38.94,10.24,8.02,0,15.84-1.25,23.17-3.46,14.6,15.98,35.55,26.01,58.93,26.01,24.62,0,46.62-11.13,61.28-28.63,2.49.28,4.91.41,7.4.41,18.05,0,34.65-6.09,48.07-16.18,11.41,30.16,40.53,51.67,74.7,51.67s63.49-21.65,74.91-52.01c6.29,1.59,12.86,2.56,19.71,2.56,15.77,0,30.37-4.63,42.74-12.45,10.24,20.06,30.99,33.82,55.05,33.82,30.09,0,55.13-21.51,60.66-50.01.69-3.8,1.11-7.75,1.11-11.76,0-34.1-27.67-61.76-61.77-61.76"/>
  </g>
  <g class="cls-15">
    <path class="cls-4" d="M1010.34,634.41c-5.53,28.5-30.57,50.01-60.66,50.01-24.07,0-44.82-13.77-55.05-33.82-12.38,7.82-26.98,12.45-42.74,12.45-6.85,0-13.42-.97-19.71-2.56-11.41,30.36-40.6,52.01-74.91,52.01s-63.28-21.51-74.7-51.67c-13.42,10.1-30.02,16.18-48.07,16.18-2.49,0-4.91-.14-7.4-.41-14.66,17.5-36.66,28.63-61.28,28.63s-44.33-10.03-58.93-26.01c-7.33,2.21-15.15,3.46-23.17,3.46-14.18,0-27.46-3.74-38.94-10.24-13.76,11.2-31.26,17.91-50.35,17.91-25.24,0-47.72-11.83-62.25-30.16-13.35,10.17-30.02,16.25-48.07,16.25-14.73,0-28.5-4.08-40.39-11.07-10.58,31.47-40.25,54.16-75.32,54.16-43.57,0-78.99-35.07-79.47-78.57,21.1-25.04,74.28-69.23,159.91-18.33,0,0-9.96-16.46-29.12-22.06,0,0,20.33-30.02,50.63-10.93,0,0,47.38-73.52,109.21,5.95,0,0-5.74-28.91-35.34-40.81,0,0,75.53-108.59,134.25,19.85,0,0,19.37-30.43,39.7.49,0,0,0-17.5-19.09-21.03,0,0,72.41-135.01,163.02,11.62,0,0-21.51,2.49-29.46,25.45,0,0,29.4-37.84,72.21-12.24-1.94-1.66-17.57-14.94-28.01-16.05,0,0,52.36-88.05,113.02,13.56,0,0,18.81-20.34,33.54,4.98,0,0,60.8-65.01,100.5,31.68,0,0,2.63-11.48-5.74-22.06,0,0,63.01-43.64,92.2,43.36"/>
  </g>
  <path class="cls-4" d="M540.84,205.18v63.12l3.53-63.12h-3.53Z"/>
  <path class="cls-4" d="M558.17,205.17l2.38,132.88,2.43-132.88h-4.81Z"/>
  <g class="cls-18">
    <g class="cls-16">
      <g class="cls-17">
        <path class="cls-25" d="M499.54,131.1v63.03h35.49v-63.03h-35.49Z"/>
      </g>
    </g>
  </g>
  <g class="cls-23">
    <g class="cls-20">
      <g class="cls-19">
        <path class="cls-29" d="M572.55,131.1v63.03h35.49v-63.03h-35.49Z"/>
      </g>
    </g>
  </g>
  <g class="cls-22">
    <g class="cls-21">
      <g class="cls-10">
        <path class="cls-28" d="M507.12,31.26v155.22h93.36V31.26h-93.36Z"/>
      </g>
    </g>
  </g>
  <g class="cls-8">
    <g class="cls-14">
      <g class="cls-12">
        <path class="cls-27" d="M534.22,186.48v18.69h39.14v-18.69h-39.14Z"/>
      </g>
    </g>
  </g>
  <path class="cls-2" d="M554.24,194.13h-.9l-3.93-58.35c-.17-2.53,1.84-4.68,4.38-4.68s4.55,2.15,4.37,4.68l-3.92,58.35"/>
  <g class="cls-13">
    <g class="cls-11">
      <g class="cls-9">
        <path class="cls-26" d="M532.57,31.26v33.13h42.45V31.26h-42.45Z"/>
      </g>
    </g>
  </g>
  <path class="cls-7" d="M575.38,96.91c0,11.93-9.67,21.6-21.59,21.6s-21.59-9.67-21.59-21.6,9.67-21.59,21.59-21.59,21.59,9.67,21.59,21.59"/>
  <path class="cls-5" d="M570.53,96.9c0,9.25-7.51,16.76-16.76,16.76-1.13,0-2.23-.12-3.29-.31-1.1-.24-2.14-.58-3.18-1.01h-.03c-6.01-2.53-10.22-8.48-10.22-15.45,0-8.12,5.77-14.87,13.4-16.39,1.07-.21,2.2-.34,3.33-.34,1.74,0,3.45.27,5.01.79.43.09.83.24,1.22.43.67.24,1.31.55,1.93.91.27.12.55.27.79.43.58.39,1.16.79,1.68,1.25.67.52,1.28,1.1,1.83,1.74.7.73,1.31,1.56,1.8,2.41,1.62,2.56,2.5,5.55,2.5,8.76"/>
  <path class="cls-6" d="M546.07,92.38c-.8,0-1.59-.3-2.19-.91-1.22-1.22-1.22-3.17,0-4.39l6.56-6.56c1.07-.21,2.2-.34,3.33-.34,1.74,0,3.45.27,5.01.79l-10.5,10.5c-.61.61-1.41.91-2.21.91"/>
  <path class="cls-6" d="M547.6,100.2c-.38,0-.76-.14-1.05-.44-.58-.58-.58-1.53,0-2.11l15.39-15.35c.27.12.55.27.79.43.58.39,1.16.79,1.68,1.25l-15.75,15.78c-.29.29-.67.44-1.05.44"/>
  <path class="cls-6" d="M563.16,92.39c-.38,0-.76-.15-1.05-.44-.58-.58-.58-1.53,0-2.11l4.12-4.12c.7.73,1.31,1.56,1.8,2.41l-3.82,3.82c-.29.29-.67.44-1.05.44"/>
  <path class="cls-6" d="M550.48,113.35c-1.1-.24-2.14-.58-3.18-1.01l3.97-3.97c.29-.29.66-.44,1.04-.44s.75.15,1.04.44c.3.28.42.67.42,1.07,0,.36-.12.73-.42,1.04l-2.87,2.87"/>
  <path class="cls-6" d="M556.53,107.35c-.75,0-1.36-.61-1.36-1.36s.61-1.36,1.36-1.36,1.37.61,1.37,1.36-.61,1.36-1.37,1.36"/>
</svg>